<svg xmlns="http://www.w3.org/2000/svg" width="172" height="172" viewBox="0 0 172 172">
  <rect width="172" height="172" rx="38" fill="#102a2f"/>
  <circle cx="86" cy="86" r="54" fill="#1f7a7a"/>
  <path d="M86 38c-20 0-36 16-36 36 0 29 36 62 36 62s36-33 36-62c0-20-16-36-36-36z" fill="#f5f1e8"/>
  <circle cx="86" cy="74" r="13" fill="#102a2f"/>
  <path d="M41 64c-8 8-13 19-13 32s5 24 13 32" fill="none" stroke="#f5f1e8" stroke-width="8" stroke-linecap="round" opacity=".72"/>
  <path d="M131 64c8 8 13 19 13 32s-5 24-13 32" fill="none" stroke="#f5f1e8" stroke-width="8" stroke-linecap="round" opacity=".72"/>
  <path d="M58 99c-5-6-8-14-8-23 0-20 16-36 36-36s36 16 36 36c0 9-3 17-8 23" fill="none" stroke="#102a2f" stroke-width="5" stroke-linecap="round" opacity=".25"/>
</svg>
